<svg xmlns="http://www.w3.org/2000/svg"
     xmlns:xlink="http://www.w3.org/1999/xlink" width="100" zoomAndPan="magnify" viewBox="0 0 75 30.000001" height="40"
     preserveAspectRatio="xMidYMid meet" version="1.0">
    <defs>
    <g/>
        <clipPath id="id1">
            <path d="M 2.097656 2.265625 L 28.101562 2.265625 L 28.101562 26.761719 L 2.097656 26.761719 Z M 2.097656 2.265625 " clip-rule="nonzero"/></clipPath>
        <clipPath id="id2"><path d="M 68.726562 12.785156 L 72.808594 12.785156 L 72.808594 16.867188 L 68.726562 16.867188 Z M 68.726562 12.785156 " clip-rule="nonzero"/></clipPath>
    </defs>
    <g clip-path="url(#id1)">
        <path fill="#F4951E" d="M 9.691406 2.515625 C 9.601562 2.300781 9.347656 2.195312 9.136719 2.289062 C 2.613281 5.1875 2.097656 11.804688 2.097656 13.796875 C 2.097656 20.945312 7.929688 26.765625 15.101562 26.765625 C 22.1875 26.765625 27.964844 21.082031 28.101562 14.046875 C 28.101562 13.910156 27.988281 13.796875 27.851562 13.796875 L 25.765625 13.796875 C 25.632812 13.796875 25.527344 13.902344 25.527344 14.035156 C 25.398438 19.660156 20.769531 24.195312 15.101562 24.195312 C 9.351562 24.195312 4.671875 19.53125 4.671875 13.796875 C 4.671875 12.210938 5.074219 6.953125 10.128906 4.660156 C 10.332031 4.570312 10.433594 4.335938 10.347656 4.128906 L 9.691406 2.515625 " fill-opacity="1" fill-rule="nonzero"/>
    </g>
        <path fill="#F4951E" d="M 12.605469 5.214844 C 12.546875 4.988281 12.308594 4.851562 12.082031 4.917969 C 8.054688 6.160156 5.570312 9.53125 5.578125 13.808594 C 5.582031 17.949219 8.25 21.703125 12.230469 22.871094 C 18.613281 24.75 24.460938 20.09375 24.621094 14.050781 C 24.625 13.910156 24.511719 13.796875 24.375 13.796875 C 23.875 13.796875 22.769531 13.796875 22.285156 13.796875 C 22.152344 13.796875 22.050781 13.902344 22.046875 14.035156 C 21.914062 17.902344 18.585938 20.980469 14.617188 20.710938 C 10.367188 20.421875 7.402344 16.261719 8.332031 12.117188 C 8.84375 9.84375 10.417969 8.144531 12.769531 7.398438 C 12.980469 7.328125 13.109375 7.109375 13.050781 6.894531 L 12.605469 5.214844 " fill-opacity="1" fill-rule="nonzero"/>
        <path fill="#F4951E" d="M 14.746094 10.355469 C 14.949219 10.335938 15.101562 10.148438 15.101562 9.945312 L 15.101562 8.199219 C 15.101562 7.964844 14.90625 7.765625 14.667969 7.785156 C 11.460938 8.011719 8.933594 10.746094 9.0625 14.035156 C 9.183594 17.132812 11.753906 19.699219 14.859375 19.820312 C 18.214844 19.949219 21.003906 17.335938 21.140625 14.050781 C 21.144531 13.910156 21.03125 13.796875 20.742188 13.796875 L 18.800781 13.796875 C 18.671875 13.796875 18.570312 13.898438 18.5625 14.03125 C 18.4375 15.84375 16.90625 17.28125 15.050781 17.253906 C 13.210938 17.230469 11.660156 15.683594 11.632812 13.847656 C 11.605469 12.039062 12.980469 10.535156 14.746094 10.355469 " fill-opacity="1" fill-rule="nonzero"/>
    <g clip-path="url(#id2)">
        <path fill="#F4951E" d="M 70.769531 12.785156 C 69.640625 12.785156 68.726562 13.699219 68.726562 14.828125 C 68.726562 15.953125 69.640625 16.867188 70.769531 16.867188 C 71.894531 16.867188 72.808594 15.953125 72.808594 14.828125 C 72.808594 13.699219 71.894531 12.785156 70.769531 12.785156 Z M 70.769531 12.964844 C 71.796875 12.964844 72.632812 13.796875 72.632812 14.828125 C 72.632812 15.859375 71.796875 16.691406 70.769531 16.691406 C 69.738281 16.691406 68.902344 15.859375 68.902344 14.828125 C 68.902344 13.796875 69.738281 12.964844 70.769531 12.964844 Z M 70.183594 14.027344 L 70.183594 15.625 L 70.382812 15.625 L 70.382812 14.992188 L 70.777344 14.992188 L 71.117188 15.625 L 71.351562 15.625 L 70.980469 14.960938 C 71.183594 14.898438 71.304688 14.726562 71.304688 14.503906 C 71.304688 14.214844 71.101562 14.027344 70.792969 14.027344 Z M 70.382812 14.207031 L 70.765625 14.207031 C 70.972656 14.207031 71.097656 14.320312 71.097656 14.511719 C 71.097656 14.707031 70.980469 14.816406 70.777344 14.816406 L 70.382812 14.816406 Z M 70.382812 14.207031 " fill-opacity="1" fill-rule="nonzero"/>
    </g>
    <g fill="#F4951E" fill-opacity="1">
        <g transform="translate(32.087198, 23.722576)"><g>
            <path d="M 7.359375 -2.8125 C 7.296875 -1.90625 6.960938 -1.191406 6.359375 -0.671875 C 5.753906 -0.148438 4.957031 0.109375 3.96875 0.109375 C 2.894531 0.109375 2.046875 -0.25 1.421875 -0.96875 C 0.804688 -1.695312 0.5 -2.695312 0.5 -3.96875 L 0.5 -4.484375 C 0.5 -5.296875 0.640625 -6.007812 0.921875 -6.625 C 1.210938 -7.238281 1.617188 -7.707031 2.140625 -8.03125 C 2.671875 -8.363281 3.289062 -8.53125 4 -8.53125 C 4.96875 -8.53125 5.75 -8.269531 6.34375 -7.75 C 6.9375 -7.226562 7.28125 -6.5 7.375 -5.5625 L 5.640625 -5.5625 C 5.597656 -6.101562 5.445312 -6.492188 5.1875 -6.734375 C 4.925781 -6.984375 4.53125 -7.109375 4 -7.109375 C 3.414062 -7.109375 2.976562 -6.898438 2.6875 -6.484375 C 2.40625 -6.078125 2.257812 -5.4375 2.25 -4.5625 L 2.25 -3.921875 C 2.25 -3.015625 2.382812 -2.347656 2.65625 -1.921875 C 2.9375 -1.503906 3.375 -1.296875 3.96875 -1.296875 C 4.507812 -1.296875 4.910156 -1.414062 5.171875 -1.65625 C 5.429688 -1.90625 5.582031 -2.289062 5.625 -2.8125 Z M 7.359375 -2.8125 "/></g></g><g transform="translate(39.8332, 23.722576)"><g><path d="M 2.59375 0 L 0.859375 0 L 0.859375 -8.421875 L 2.59375 -8.421875 Z M 2.59375 0 "/>
        </g>
    </g>
        <g transform="translate(43.284217, 23.722576)">
            <g>
            <path d="M 5.125 -2.203125 C 5.125 -2.535156 5.003906 -2.789062 4.765625 -2.96875 C 4.535156 -3.144531 4.117188 -3.328125 3.515625 -3.515625 C 2.921875 -3.710938 2.445312 -3.90625 2.09375 -4.09375 C 1.132812 -4.613281 0.65625 -5.3125 0.65625 -6.1875 C 0.65625 -6.632812 0.78125 -7.035156 1.03125 -7.390625 C 1.289062 -7.753906 1.660156 -8.035156 2.140625 -8.234375 C 2.628906 -8.429688 3.171875 -8.53125 3.765625 -8.53125 C 4.367188 -8.53125 4.90625 -8.421875 5.375 -8.203125 C 5.84375 -7.984375 6.207031 -7.675781 6.46875 -7.28125 C 6.726562 -6.882812 6.859375 -6.4375 6.859375 -5.9375 L 5.125 -5.9375 C 5.125 -6.320312 5 -6.617188 4.75 -6.828125 C 4.507812 -7.046875 4.171875 -7.15625 3.734375 -7.15625 C 3.304688 -7.15625 2.972656 -7.0625 2.734375 -6.875 C 2.503906 -6.695312 2.390625 -6.460938 2.390625 -6.171875 C 2.390625 -5.898438 2.523438 -5.671875 2.796875 -5.484375 C 3.078125 -5.296875 3.488281 -5.125 4.03125 -4.96875 C 5.007812 -4.664062 5.722656 -4.296875 6.171875 -3.859375 C 6.628906 -3.421875 6.859375 -2.875 6.859375 -2.21875 C 6.859375 -1.488281 6.582031 -0.914062 6.03125 -0.5 C 5.476562 -0.09375 4.738281 0.109375 3.8125 0.109375 C 3.15625 0.109375 2.5625 -0.00390625 2.03125 -0.234375 C 1.5 -0.472656 1.09375 -0.796875 0.8125 -1.203125 C 0.539062 -1.617188 0.40625 -2.101562 0.40625 -2.65625 L 2.140625 -2.65625 C 2.140625 -1.71875 2.695312 -1.25 3.8125 -1.25 C 4.21875 -1.25 4.535156 -1.332031 4.765625 -1.5 C 5.003906 -1.675781 5.125 -1.910156 5.125 -2.203125 Z M 5.125 -2.203125 "/>
            </g>
        </g>
        <g transform="translate(50.56199, 23.722576)">
            <g>
                <path d="M 7.125 -8.421875 L 7.125 -2.875 C 7.125 -1.945312 6.832031 -1.21875 6.25 -0.6875 C 5.675781 -0.15625 4.890625 0.109375 3.890625 0.109375 C 2.910156 0.109375 2.128906 -0.148438 1.546875 -0.671875 C 0.972656 -1.191406 0.679688 -1.90625 0.671875 -2.8125 L 0.671875 -8.421875 L 2.40625 -8.421875 L 2.40625 -2.859375 C 2.40625 -2.304688 2.535156 -1.90625 2.796875 -1.65625 C 3.066406 -1.40625 3.429688 -1.28125 3.890625 -1.28125 C 4.867188 -1.28125 5.367188 -1.789062 5.390625 -2.8125 L 5.390625 -8.421875 Z M 7.125 -8.421875 "/></g></g><g transform="translate(58.354237, 23.722576)">
        <g>
            <path d="M 3.015625 -8.421875 L 5.1875 -2.3125 L 7.328125 -8.421875 L 9.609375 -8.421875 L 9.609375 0 L 7.875 0 L 7.875 -2.296875 L 8.046875 -6.28125 L 5.765625 0 L 4.578125 0 L 2.3125 -6.265625 L 2.484375 -2.296875 L 2.484375 0 L 0.75 0 L 0.75 -8.421875 Z M 3.015625 -8.421875 "/>
    </g>
    </g>
    </g>
</svg>